<?xml version="1.0" encoding="UTF-8"?>
<!-- Created with Inkscape (http://www.inkscape.org/) -->
<svg width="220" height="50" version="1.1" viewBox="0 0 58.208 13.229" xmlns="http://www.w3.org/2000/svg">
 <g transform="matrix(.57357 0 0 .57357 -6.0299 -3.9095)" fill="#fff" style="shape-inside:url(#rect2520);white-space:pre" aria-label="WebinterfaceAPI">
  <path d="m25.452 13.421v0.23618q-0.42808 0.13285-0.61998 0.32475-0.1919 0.17714-0.48713 0.73807l-4.4727 8.6059h-0.29523l-0.73807-6.7017h-0.07381l-3.277 6.7017h-0.28047l-0.91521-7.6316q-0.02952-0.1919-0.07381-0.51665-0.02952-0.32475-0.04428-0.42808-0.01476-0.11809-0.05905-0.32475-0.04428-0.22142-0.08857-0.28047-0.04428-0.05905-0.11809-0.17714-0.07381-0.11809-0.1919-0.14761-0.10333-0.04429-0.25094-0.08857-0.13285-0.04428-0.33951-0.07381v-0.23618h3.4837v0.23618q-0.67902 0.07381-0.88568 0.23618-0.1919 0.14761-0.1919 0.57569 0 0.13285 0.01476 0.20666l0.6495 5.9931 2.539-5.137-0.13285-1.0185q-0.07381-0.54617-0.2657-0.67902-0.1919-0.14761-0.8414-0.17714v-0.23618h3.5132v0.23618q-0.59046 0.05905-0.79712 0.23618-0.20666 0.17714-0.20666 0.63474l0.60522 6.1407 2.7604-5.4322q0.30999-0.61998 0.30999-0.98901 0-0.30999-0.1919-0.41332-0.17714-0.11809-0.76759-0.17714v-0.23618z"/>
  <path d="m28.64 21.452 0.17714 0.17714q-0.6495 0.75283-1.4614 1.1809-0.81188 0.41332-1.5942 0.41332-0.87092 0-1.4171-0.56093-0.53141-0.56093-0.53141-1.4614 0-1.0776 0.66426-2.1699t1.6976-1.7861q1.0481-0.69379 2.0814-0.69379 0.54617 0 0.85616 0.2657 0.32475 0.2657 0.32475 0.73807 0 0.95949-1.0628 1.7123-1.0628 0.75283-2.7161 0.98901l-0.41332 0.05905q-0.14761 0.59046-0.14761 0.91521 0 0.60522 0.36904 0.97425 0.3838 0.35427 1.0185 0.35427 0.47236 0 0.91521-0.22142 0.44284-0.23618 1.24-0.88568zm-3.2918-1.4614q0.79712-0.1919 1.3876-0.47236 0.60522-0.28047 0.91521-0.54617 0.32475-0.2657 0.51665-0.57569 0.1919-0.30999 0.23618-0.51665 0.05905-0.20666 0.05905-0.41332 0-0.25094-0.14761-0.41332-0.13285-0.16238-0.36904-0.16238-0.56093 0-1.2695 0.73807-0.70855 0.72331-1.0776 1.7123z"/>
  <path d="m31.105 13.569v-0.25094q1.1071-0.13285 2.2585-0.33951l0.07381 0.07381-1.5352 5.7274q0.78236-1.2252 1.4319-1.7271 0.6495-0.50189 1.4171-0.50189 0.73807 0 1.2252 0.50189 0.48713 0.50189 0.48713 1.2695 0 1.1366-0.70855 2.288-0.69379 1.1366-1.7861 1.8747-1.0923 0.73807-2.1847 0.73807-0.67902 0-1.3285-0.26571-0.63474-0.28047-0.63474-0.57569l2.0076-7.3955q0.23618-0.82664 0.23618-1.0185 0-0.25094-0.16238-0.30999-0.14761-0.07381-0.79712-0.08857zm0.66426 9.3144q0.75283 0 1.4319-0.53141 0.69378-0.53141 1.1071-1.2695 0.41332-0.73807 0.6495-1.4319 0.25094-0.69379 0.25094-1.1071 0-0.59046-0.28047-0.92997-0.28047-0.33951-0.75283-0.33951-0.66426 0-1.2695 0.63474-0.60522 0.61998-0.98901 1.4909-0.3838 0.87092-0.60522 1.6976-0.22142 0.81188-0.22142 1.2842 0 0.50189 0.67902 0.50189z"/>
  <path d="m38.397 22.529q0.33951 0 1.2104-1.1514l0.1919 0.16238q-0.63474 0.92997-1.0923 1.3138-0.4576 0.36904-0.97425 0.36904-0.67902 0-0.67902-0.8414 0-0.42808 0.32475-1.609l0.70855-2.6128q0.13285-0.44284 0.13285-0.6495 0-0.22142-0.17714-0.28047-0.16238-0.05905-0.75283-0.07381v-0.23618q0.67902-0.05905 2.3618-0.36904l0.04429 0.02952-1.3876 5.0779q-0.14761 0.53141-0.14761 0.6495 0 0.07381 0.07381 0.14761 0.07381 0.07381 0.16238 0.07381zm0.59046-8.9011q0.20666-0.22142 0.50189-0.22142t0.51665 0.25094q0.22142 0.23618 0.22142 0.56093 0 0.30999-0.22142 0.53141-0.20666 0.22142-0.50189 0.22142-0.32475 0-0.51665-0.20666-0.1919-0.22142-0.1919-0.57569 0-0.33951 0.1919-0.56093z"/>
  <path d="m46.87 21.333 0.20666 0.1919q-0.76759 1.0185-1.1662 1.3433-0.39856 0.32475-0.90045 0.32475-0.36904 0-0.53141-0.1919-0.16238-0.1919-0.16238-0.60522 0-0.22142 0.23618-1.1071l0.6495-2.4356q0.20666-0.79712 0.20666-1.1219 0-0.42808-0.35427-0.42808-0.81188 0-2.1847 2.0961-0.48713 0.75283-0.72331 1.3433-0.23618 0.5757-0.75283 2.3175h-1.1071l1.4171-5.1665q0.02952-0.14761 0.02952-0.25094 0-0.22142-0.1919-0.29523-0.1919-0.08857-0.75283-0.10333v-0.23618q1.4909-0.28047 2.3913-0.4576l0.04428 0.02952-0.98901 3.218q1.1366-1.7714 1.9042-2.5094 0.78235-0.73807 1.4909-0.73807 0.42808 0 0.69379 0.25094 0.28047 0.25094 0.28047 0.6495 0 0.3838-0.13285 0.8414l-0.8414 3.0408q-0.20666 0.82664-0.20666 0.92997 0 0.08857 0.07381 0.16238 0.07381 0.07381 0.16238 0.07381 0.2657 0 1.2104-1.1662z"/>
  <path d="m51.594 16.743-0.07381 0.47236h-1.24l-1.299 4.9155q-0.01476 0.04428-0.01476 0.07381 0 0.29523 0.22142 0.29523 0.17714 0 0.41332-0.22142 0.23618-0.23618 0.78235-0.94473l0.1919 0.10333q-0.69379 1.0333-1.1366 1.4171-0.44284 0.36904-0.95949 0.36904-0.29523 0-0.50189-0.16238-0.20666-0.16238-0.20666-0.39856 0-0.11809 0.07381-0.41332t0.16238-0.60522q0.08857-0.32475 0.10333-0.36904l1.0628-4.0594h-1.0923q-0.01476-0.04428-0.01476-0.08857 0-0.14761 0.1919-0.25094 0.1919-0.11809 0.48713-0.22142 0.29523-0.11809 0.78235-0.50189 0.50189-0.39856 0.97425-1.0185 0.10333-0.13285 0.22142-0.13285 0.11809 0 0.11809 0.14761 0 0.04428-0.01476 0.07381l-0.41332 1.5204z"/>
  <path d="m56.081 21.452 0.17714 0.17714q-0.6495 0.75283-1.4614 1.1809-0.81188 0.41332-1.5942 0.41332-0.87092 0-1.4171-0.56093-0.53141-0.56093-0.53141-1.4614 0-1.0776 0.66426-2.1699t1.6976-1.7861q1.0481-0.69379 2.0814-0.69379 0.54617 0 0.85616 0.2657 0.32475 0.2657 0.32475 0.73807 0 0.95949-1.0628 1.7123-1.0628 0.75283-2.7161 0.98901l-0.41332 0.05905q-0.14761 0.59046-0.14761 0.91521 0 0.60522 0.36904 0.97425 0.3838 0.35427 1.0185 0.35427 0.47236 0 0.91521-0.22142 0.44284-0.23618 1.24-0.88568zm-3.2918-1.4614q0.79712-0.1919 1.3876-0.47236 0.60522-0.28047 0.91521-0.54617 0.32475-0.2657 0.51665-0.57569 0.1919-0.30999 0.23618-0.51665 0.05905-0.20666 0.05905-0.41332 0-0.25094-0.14761-0.41332-0.13285-0.16238-0.36904-0.16238-0.56093 0-1.2695 0.73807-0.70855 0.72331-1.0776 1.7123z"/>
  <path d="m61.912 18.042q-0.28047 0-0.39856-0.13285-0.11809-0.13285-0.17714-0.26571-0.05904-0.13285-0.1919-0.13285-0.39856 0-1.1514 1.2842-0.50189 0.8414-0.81188 1.609t-0.88568 2.6571h-1.1219l1.1957-4.3103q0.23618-0.85616 0.23618-1.2104 0-0.41332-0.51665-0.41332-0.14761 0-0.50189 0.07381v-0.25094q0.6495-0.10333 2.288-0.39856l0.04428 0.02952-0.78235 3.2032q0.14761-0.3838 0.3838-0.85616 0.25094-0.47236 0.61998-1.0481 0.36904-0.5757 0.8414-0.94473 0.47236-0.3838 0.91521-0.3838 0.30999 0 0.50189 0.22142 0.1919 0.20666 0.1919 0.54617 0 0.72331-0.67902 0.72331z"/>
  <path d="m61.543 25.171q0 0.11809-0.05904 0.22142-0.07381 0.11809-0.07381 0.17714 0 0.23618 0.29523 0.23618 0.94473 0 1.4319-2.3913l1.299-6.1998h-1.3285l0.10333-0.47236h1.358q0.1919-0.60522 0.32475-1.0038 0.14761-0.39856 0.41332-0.95949 0.28047-0.56093 0.5757-0.90045t0.73807-0.57569q0.44284-0.25094 0.95949-0.25094 0.54617 0 0.90044 0.28047 0.36904 0.26571 0.36904 0.67902 0 0.23618-0.1919 0.41332-0.17714 0.17714-0.42808 0.17714-0.25094 0-0.39856-0.16238-0.14761-0.16238-0.14761-0.42808 0-0.13285 0.07381-0.28047t0.07381-0.17714q0-0.17714-0.32475-0.17714-0.61998 0-1.0481 0.81188-0.42808 0.81188-0.75283 2.5537h1.5942l-0.08857 0.47236h-1.609l-1.0628 4.7236q-0.4576 2.0371-1.2104 3.0999-0.75283 1.0776-1.7418 1.0776-0.48713 0-0.82664-0.2657t-0.33951-0.63474q0-0.25094 0.16238-0.42808 0.14761-0.17714 0.3838-0.17714 0.23618 0 0.41332 0.16238 0.16238 0.16238 0.16238 0.39856z"/>
  <path d="m72.452 22.455q0.05905 0 0.14761-0.04428 0.08857-0.05905 0.22142-0.17714 0.14761-0.11809 0.23618-0.20666 0.08857-0.10333 0.28047-0.29523 0.20666-0.20666 0.29523-0.29523l0.17714 0.14761q-0.81188 1.0038-1.2104 1.3138-0.39856 0.30999-0.8414 0.30999-0.59046 0-0.59046-0.60522 0-0.36904 0.33951-1.6976-0.97425 1.3728-1.5795 1.8452-0.60522 0.47236-1.3876 0.47236-0.70855 0-1.1071-0.42808-0.39856-0.44284-0.39856-1.2104 0-1.1366 0.63474-2.3175 0.6495-1.1809 1.6385-1.9485 1.0038-0.76759 1.9485-0.76759 0.98901 0 1.1809 0.85616l0.16238-0.70855 0.04428-0.04428 0.90045-0.10333 0.10333 0.04428q-0.01476 0.05905-0.08857 0.30999-1.3138 4.8122-1.3138 5.3584 0 0.1919 0.20666 0.1919zm-0.28047-4.6794q0-0.41332-0.25094-0.6495-0.23618-0.25094-0.6495-0.25094-0.81188 0-1.5499 0.94473-0.72331 0.94473-1.0923 1.978-0.35427 1.0185-0.35427 1.5942 0 0.50189 0.23618 0.81188 0.23618 0.29523 0.61998 0.29523 0.69379 0 1.4171-0.79712 0.72331-0.81188 1.1662-1.919 0.4576-1.1071 0.4576-2.0076z"/>
  <path d="m78.696 16.861q-0.88568 0-1.5795 0.70855-0.69379 0.69379-1.0333 1.6385-0.32475 0.92997-0.32475 1.8009 0 0.78235 0.35427 1.24 0.35427 0.44284 0.98901 0.44284 0.54617 0 1.0185-0.2657 0.48713-0.28047 1.0923-0.92997l0.23618 0.14761q-0.66426 0.8414-1.3138 1.2104-0.6495 0.36904-1.4761 0.36904-1.0333 0-1.609-0.5757-0.56093-0.59046-0.56093-1.6385 0-1.7271 1.3138-3.0851 1.3138-1.3728 2.967-1.3728 0.66426 0 1.1071 0.33951t0.44284 0.85616q0 0.28047-0.20666 0.48713-0.20666 0.1919-0.50189 0.1919-0.5757 0-0.5757-0.56093 0-0.14761 0.10333-0.3838 0.11809-0.25094 0.11809-0.32475 0-0.29523-0.56093-0.29523z"/>
  <path d="m85.265 21.452 0.17714 0.17714q-0.6495 0.75283-1.4614 1.1809-0.81188 0.41332-1.5942 0.41332-0.87092 0-1.4171-0.56093-0.53141-0.56093-0.53141-1.4614 0-1.0776 0.66426-2.1699t1.6976-1.7861q1.0481-0.69379 2.0814-0.69379 0.54617 0 0.85616 0.2657 0.32475 0.2657 0.32475 0.73807 0 0.95949-1.0628 1.7123-1.0628 0.75283-2.7161 0.98901l-0.41332 0.05905q-0.14761 0.59046-0.14761 0.91521 0 0.60522 0.36904 0.97425 0.3838 0.35427 1.0185 0.35427 0.47236 0 0.91521-0.22142 0.44284-0.23618 1.24-0.88568zm-3.2918-1.4614q0.79712-0.1919 1.3876-0.47236 0.60522-0.28047 0.91521-0.54617 0.32475-0.2657 0.51665-0.57569 0.1919-0.30999 0.23618-0.51665 0.05905-0.20666 0.05905-0.41332 0-0.25094-0.14761-0.41332-0.13285-0.16238-0.36904-0.16238-0.56093 0-1.2695 0.73807-0.70855 0.72331-1.0776 1.7123z"/>
  <path d="m95.155 22.824v0.23618h-3.6313v-0.23618q0.70855-0.07381 0.92997-0.22142 0.22142-0.14761 0.22142-0.56093 0-0.11809-0.02952-0.3838l-0.29523-1.9337h-3.2475l-0.8414 1.668q-0.29523 0.59046-0.29523 0.91521 0 0.28047 0.14761 0.36904 0.16238 0.08857 0.72331 0.14761v0.23618h-2.7604v-0.23618q0.4576-0.08857 0.75283-0.44284 0.30999-0.35427 1.1514-1.8009l4.2808-7.3807h0.3838l1.3876 8.355q0.14761 0.81188 0.32475 1.0185 0.17714 0.1919 0.79712 0.25094zm-5.7422-3.6313h2.8637l-0.6495-3.838z"/>
  <path d="m104.62 15.621q0 0.50189-0.19189 0.97425-0.17714 0.47236-0.60522 0.94473-0.41332 0.4576-1.24 0.73807-0.82664 0.28047-1.9633 0.28047-0.87093 0-1.3581-0.11809l-0.78235 2.849q-0.17714 0.63474-0.17714 0.85616 0 0.36904 0.14761 0.47236 0.16238 0.10333 0.85616 0.20666v0.23618h-3.6165v-0.23618q0.6495-0.13285 0.82664-0.28047 0.1919-0.16238 0.36904-0.81188l1.7418-6.2736q0.23618-0.81188 0.23618-1.1809 0-0.30999-0.23618-0.41332-0.22142-0.11809-0.90044-0.20666v-0.23618h3.7789q1.5057 0 2.3028 0.57569 0.81187 0.56093 0.81187 1.6238zm-1.5204 0q0-0.82664-0.42808-1.2842-0.41332-0.47236-1.55-0.47236-0.56093 0-0.67902 0.41332l-1.0481 3.6608q0.50189 0.07381 0.76759 0.07381 1.4171 0 2.1699-0.51665 0.76759-0.51665 0.76759-1.8747z"/>
  <path d="m103.6 23.061v-0.23618q0.63474-0.11809 0.82664-0.28047 0.1919-0.17714 0.36903-0.81188l1.8156-6.5245q0.16238-0.57569 0.16238-0.91521 0-0.30999-0.20666-0.42808-0.1919-0.13285-0.82664-0.20666v-0.23618h3.6461v0.23618q-0.6495 0.11809-0.8414 0.29523-0.1919 0.16238-0.36904 0.79712l-1.8156 6.5393q-0.16237 0.5757-0.16237 0.92997 0 0.30999 0.17713 0.42808 0.1919 0.10333 0.82664 0.17714v0.23618z"/>
 </g>
</svg>
