<?xml version="1.0" encoding="UTF-8"?>
<!-- Created with Inkscape (http://www.inkscape.org/) -->
<svg width="64" height="64" version="1.1" viewBox="0 0 16.933 16.933" xmlns="http://www.w3.org/2000/svg">
 <g transform="matrix(.26458 0 0 .26458 -15.437 -9.3294)" style="shape-inside:url(#rect29797);white-space:pre" aria-label="W">
  <path d="m118.35 45.277v1.536q-2.048 0.32-3.072 1.216-1.024 0.832-2.304 3.456l-18.304 37.76h-1.856l-3.776-31.296-14.912 31.296h-1.856l-4.992-37.056q-0.448-3.392-1.152-4.096-0.64-0.768-3.776-1.28v-1.536h17.728v1.6q-2.304 0.32-3.136 1.024-0.768 0.64-0.768 2.368 0 0.704 0.064 1.024l2.496 22.336 9.6-19.904q-0.064-4.096-0.896-5.312-0.768-1.216-3.648-1.6v-1.536h17.216v1.6q-2.56 0.256-3.328 0.96-0.704 0.64-0.704 2.752 0 0.896 0.384 4.16l2.112 18.88 9.984-20.928q0.96-2.112 0.96-2.944 0-1.728-0.704-2.176-0.64-0.512-3.328-0.704v-1.6z"/>
 </g>
</svg>
